<svg xmlns="http://www.w3.org/2000/svg" viewBox="0 0 512 512">
  <rect width="512" height="512" fill="#fff"/>
  <g fill="#0b3ea3">
    <path d="M92 250c-16 0-29-13-29-29C63 123 143 44 256 44c110 0 193 78 193 184 0 91-70 169-166 181-20 3-39 4-57 4-16 0-29-13-29-29s13-29 29-29c16 0 31-1 47-3 67-9 118-61 118-124 0-73-57-126-135-126-80 0-135 52-135 119 0 16-13 29-29 29z"/>
    <path d="M256 135c62 0 114 43 126 102H231c-18 0-32 14-32 32s14 32 32 32h155c-22 48-72 82-130 82-77 0-139-55-139-124s62-124 139-124z"/>
  </g>
  <rect x="100" y="272" width="18" height="18" fill="#0b3ea3"/>
  <rect x="112" y="315" width="43" height="43" fill="#0b3ea3"/>
  <rect x="67" y="365" width="26" height="26" fill="#0b3ea3"/>
  <rect x="104" y="440" width="18" height="18" fill="#0b3ea3"/>
  <rect x="156" y="357" width="74" height="74" fill="#0b3ea3"/>
  <rect x="155" y="278" width="36" height="36" fill="#ffdc12"/>
  <rect x="121" y="430" width="38" height="38" fill="#ffdc12"/>
  <rect x="231" y="344" width="21" height="21" fill="#ffdc12"/>
  <rect x="231" y="432" width="50" height="50" fill="#ffdc12"/>
</svg>
